<svg xmlns="http://www.w3.org/2000/svg" viewBox="0 0 134 137">
  <path fill="#000" fill-rule="nonzero" d="M93.148438 80.832031C109.5 57.742188 104.03125 25.769531 80.941406 9.421875S25.878906-1.460938 9.53125 21.632812C-6.816406 44.722656-1.351562 76.691406 21.742188 93.039062c16.480468 11.667969 38.269531 12.566407 55.652343 2.300782l37.769531 37.542968c4.078126 4.292969 10.863282 4.464844 15.15625.386719 4.292969-4.074219 4.464844-10.859375.390626-15.152343-.128907-.136719-.253907-.261719-.390626-.390626L93.148438 80.832031zm-41.839844 3.5000008C33.0625 84.335938 18.269531 69.554688 18.2578112 51.308594 18.253906 33.0625 33.035156 18.269531 51.285156 18.2617159 69.507812 18.253906 84.292969 33.011719 84.3281745 51.234375c.0312005 18.25-14.7422365 33.066406-32.9961435 33.0976568h-.023437z"/>
</svg>
