<?xml version="1.0" encoding="iso-8859-1"?>
<!-- Generator: Adobe Illustrator 19.0.0, SVG Export Plug-In . SVG Version: 6.00 Build 0)  -->
<svg version="1.1" id="Layer_1" xmlns="http://www.w3.org/2000/svg" xmlns:xlink="http://www.w3.org/1999/xlink" x="0px" y="0px"
	 viewBox="0 0 502 502" style="enable-background:new 0 0 502 502;" xml:space="preserve">
<g>
	<g>
		<path style="fill:#DB4949;" d="M349.215,301.023C374.13,254.693,392.8,209.639,392.8,178.65C392.8,85.507,317.293,10,224.15,10
			C131.007,10,55.5,85.507,55.5,178.65C55.5,271.793,224.15,492,224.15,492s16.977-22.168,40.156-55.407
			c-5.648-12.192-8.806-25.773-8.806-40.093C255.5,344.354,297.296,301.975,349.215,301.023z"/>
		<path style="fill:#E6E6E6;" d="M351,301c-0.597,0-1.19,0.012-1.785,0.023c-51.919,0.952-93.715,43.331-93.715,95.477
			c0,14.32,3.158,27.901,8.806,40.093C279.46,469.306,312.577,492,351,492c52.743,0,95.5-42.757,95.5-95.5S403.743,301,351,301z"/>
	</g>
	<circle style="fill:#E6E6E6;" cx="224.15" cy="178.65" r="94.803"/>
	<g>
		<path d="M328.953,178.65c0-57.789-47.015-104.803-104.803-104.803c-57.789,0-104.804,47.015-104.804,104.803
			c0,57.789,47.015,104.804,104.804,104.804C281.938,283.454,328.953,236.439,328.953,178.65z M224.15,263.454
			c-46.761,0-84.804-38.043-84.804-84.804s38.043-84.803,84.804-84.803s84.803,38.042,84.803,84.803S270.911,263.454,224.15,263.454
			z"/>
		<path d="M135.152,90.081c2.39,0,4.788-0.852,6.701-2.58c22.593-20.412,51.82-31.654,82.297-31.654
			c17.038,0,33.525,3.42,49.006,10.165c5.059,2.206,10.956-0.109,13.162-5.173c2.206-5.063-0.11-10.956-5.174-13.162
			c-18.015-7.85-37.19-11.83-56.994-11.83c-35.44,0-69.429,13.074-95.705,36.814c-4.098,3.702-4.419,10.026-0.716,14.124
			C129.703,88.97,132.423,90.081,135.152,90.081z"/>
		<path d="M111.142,108.146c-4.891-2.568-10.935-0.684-13.502,4.206c-10.659,20.301-16.293,43.227-16.293,66.299
			c0,5.523,4.478,10,10,10s10-4.477,10-10c0-19.846,4.841-39.557,14-57.002C117.914,116.758,116.031,110.713,111.142,108.146z"/>
		<path d="M365.265,291.968c24.908-48.604,37.534-86.692,37.534-113.318C402.8,80.142,322.658,0,224.15,0S45.5,80.142,45.5,178.65
			c0,95.435,163.741,310.329,170.711,319.431c1.893,2.471,4.827,3.919,7.939,3.919s6.047-1.449,7.939-3.919
			c0.145-0.19,12.992-16.99,31.322-42.833C282.373,483.425,314.557,502,351,502c58.173,0,105.5-47.327,105.5-105.5
			C456.5,343.165,416.715,298.954,365.265,291.968z M224.152,475.335c-14.17-19.11-45.221-61.926-75.952-110.547
			C94.098,279.187,65.5,214.821,65.5,178.65C65.5,91.17,136.67,20,224.15,20C311.63,20,382.8,91.17,382.8,178.65
			c0,24.916-13.372,62.81-39.733,112.647c-54.481,4.07-97.566,49.698-97.566,105.203c0,13.733,2.64,26.859,7.435,38.903
			C240.898,452.561,230.718,466.485,224.152,475.335z M361,481.396V457.5c0-5.523-4.478-10-10-10s-10,4.477-10,10v23.896
			c-39.164-4.586-70.31-35.731-74.896-74.896H290c5.522,0,10-4.477,10-10s-4.478-10-10-10h-23.896
			c4.586-39.165,35.731-70.31,74.896-74.896V335.5c0,5.523,4.478,10,10,10s10-4.477,10-10v-23.896
			c39.164,4.586,70.31,35.731,74.896,74.896H412c-5.522,0-10,4.477-10,10s4.478,10,10,10h23.896
			C431.31,445.665,400.164,476.81,361,481.396z"/>
	</g>
</g>
<g>
</g>
<g>
</g>
<g>
</g>
<g>
</g>
<g>
</g>
<g>
</g>
<g>
</g>
<g>
</g>
<g>
</g>
<g>
</g>
<g>
</g>
<g>
</g>
<g>
</g>
<g>
</g>
<g>
</g>
</svg>
