<svg xmlns="http://www.w3.org/2000/svg" viewBox="0 0 13 16">
  <path fill="#FFF" fill-rule="nonzero" d="M5.93956688.7397573L.73031819 6.1567853C.5816199 6.31141816.5 6.517514.5 6.73726826c0 .21999817.08173716.42597206.2303182.58060491l.473067.49182516c.14846376.15451091.34676725.23963215.55820498.23963215.21132046 0 .41630834-.08512124.56477211-.23963215L5.3719803 4.6494808v10.04016011c0 .45267915.34078649.81035909.77620983.81035909h.66879056c.43542334 0 .81056993-.35767994.81056993-.81035909V4.6136275l3.06262218 3.19594888c.1486983.15451091.3416074.23963215.5530451.23963215.2112032 0 .4069267-.08512124.5555078-.23963215l.4715425-.49182516C12.4189665 7.16311837 12.5 6.95714448 12.5 6.73714631c0-.21975426-.082089-.4258501-.2307873-.58048296L7.06008131.7396354C6.91091392.5846367 6.71178954.4993935 6.50011727.5c-.21237589-.0004846-.41161754.0846367-.56055039.2397573z"/>
</svg>
