<svg xmlns="http://www.w3.org/2000/svg" viewBox="0 0 12 16">
  <path fill="#FFF" fill-rule="nonzero" d="M0 9.84706756c0 1.09279884.26462128 2.11432814.80536913 3.05270974.54074784.9383816 1.26558006 1.6985894 2.18600192 2.2568671C3.91179291 15.714922 4.9012464 16 5.97123682 16c1.06999041 0 2.07094918-.285078 3.00287632-.8433556.93192713-.5582777 1.66826466-1.3184855 2.20901246-2.2568671C11.7238734 11.9495174 12 10.9398664 12 9.84706756c0-.71269488-.1955896-1.55605049-.5982742-2.54194507-.4026846-.98589458-.885906-1.90051967-1.44966444-2.73199703-.50623202-.67706013-1.10450623-1.42538975-1.79482263-2.23311061C7.46692234 1.53229399 6.25886865.28507795 5.98274209 0L4.51006711 1.53229399c-.71332694.71269487-1.40364333 1.53229398-2.05944391 2.47067557-.65580057.93838159-1.23106424 1.94803267-1.71428571 3.02895323C.23010547 8.11284336 0 9.05122494 0 9.84706756z"/>
</svg>
